<?xml version="1.0" standalone="no"?>
<!DOCTYPE svg PUBLIC "-//W3C//DTD SVG 20010904//EN"
 "http://www.w3.org/TR/2001/REC-SVG-20010904/DTD/svg10.dtd">
<svg version="1.0" xmlns="http://www.w3.org/2000/svg"
 width="1179.000000pt" height="613.000000pt" viewBox="0 0 1179.000000 613.000000"
 preserveAspectRatio="xMidYMid meet">

<g transform="translate(0.000000,613.000000) scale(0.100000,-0.100000)"
fill="#000000" stroke="none">
<path d="M4380 4619 c-222 -23 -403 -181 -451 -394 -10 -44 -14 -144 -14 -365
0 -255 3 -316 18 -373 33 -133 100 -225 211 -296 208 -131 475 -118 663 32 28
23 52 47 53 52 0 6 -33 43 -73 83 l-73 73 -20 -22 c-116 -129 -341 -140 -457
-21 -83 85 -101 188 -94 536 5 268 13 312 70 388 42 57 129 100 210 106 94 7
158 -12 234 -70 l66 -49 74 73 74 73 -47 42 c-49 44 -142 98 -197 114 -51 16
-176 25 -247 18z"/>
<path d="M3180 4601 c-140 -45 -266 -147 -316 -255 -49 -107 -57 -176 -57
-486 0 -321 9 -386 64 -491 61 -114 188 -212 324 -250 73 -20 246 -18 320 5
66 19 148 66 209 119 l40 34 -74 76 -73 75 -63 -48 c-75 -58 -118 -73 -204
-74 -92 -1 -163 26 -220 83 -58 58 -77 111 -92 251 -14 144 -5 486 17 564 39
146 156 224 319 214 80 -5 119 -22 189 -80 l49 -41 74 74 75 74 -49 45 c-60
56 -130 95 -207 115 -83 21 -254 19 -325 -4z"/>
<path d="M1940 4383 c-46 -125 -92 -250 -101 -278 -10 -27 -34 -95 -55 -150
-20 -55 -38 -110 -38 -122 -1 -12 -3 -19 -6 -17 -4 5 -39 -74 -39 -92 -1 -8
33 -12 107 -13 l107 -1 48 137 c27 76 70 200 97 276 46 132 56 156 63 146 2
-2 31 -87 65 -189 35 -102 77 -225 95 -275 l32 -90 99 -3 c55 -1 103 1 106 5
4 4 -18 78 -50 163 -32 85 -106 283 -163 440 l-105 285 -89 3 -89 3 -84 -228z"/>
<path d="M5070 3860 l0 -750 115 0 115 0 0 318 0 317 143 -3 143 -3 157 -314
157 -315 131 0 c107 0 130 2 126 14 -3 7 -80 157 -171 331 -91 175 -165 319
-163 320 1 1 22 10 47 19 24 10 66 33 92 52 232 171 199 566 -59 706 -97 53
-137 58 -500 58 l-333 0 0 -750z m658 535 c100 -30 161 -111 162 -214 0 -77
-18 -127 -62 -171 -62 -62 -102 -70 -330 -70 l-198 0 0 235 0 235 188 0 c141
0 202 -4 240 -15z"/>
<path d="M6350 3860 l0 -750 478 2 477 3 0 100 0 100 -368 3 -367 2 2 223 3
222 313 3 312 2 0 100 0 100 -315 0 -315 0 0 220 0 220 370 0 370 0 0 100 0
100 -480 0 -480 0 0 -750z"/>
<path d="M7512 3863 l3 -748 320 0 c348 0 373 3 489 62 67 34 155 125 189 195
56 117 62 164 62 498 0 265 -2 313 -18 370 -40 142 -120 247 -233 307 -106 57
-154 63 -502 63 l-312 0 2 -747z m652 519 c106 -48 151 -106 177 -227 16 -76
16 -482 0 -579 -19 -113 -65 -178 -161 -228 -42 -21 -58 -23 -242 -26 l-198
-4 0 547 0 547 188 -4 c168 -3 192 -6 236 -26z"/>
<path d="M8812 3863 l3 -748 113 -3 112 -3 0 751 0 750 -115 0 -115 0 2 -747z"/>
<path d="M9200 4510 l0 -100 205 0 205 0 0 -650 0 -650 115 0 115 0 0 650 0
650 205 0 205 0 0 100 0 100 -525 0 -525 0 0 -100z"/>
<path d="M1567 3373 c-48 -131 -87 -241 -87 -245 0 -5 53 -8 118 -8 l117 0 50
148 50 147 297 3 296 2 23 -67 c12 -38 35 -105 51 -150 l30 -83 120 0 c109 0
119 1 114 18 -4 9 -44 118 -90 242 l-83 225 -460 3 -459 2 -87 -237z"/>
<path d="M1845 2749 c-64 -10 -148 -46 -195 -85 -73 -62 -118 -199 -100 -308
16 -101 69 -171 165 -219 56 -27 103 -39 255 -62 195 -30 255 -82 255 -220 -1
-121 -55 -187 -180 -220 -146 -38 -324 1 -419 91 l-28 27 -42 -42 -41 -42 40
-36 c57 -50 164 -99 248 -114 86 -14 230 -7 304 16 58 17 149 77 145 95 -1 6
2 9 7 5 13 -7 56 57 76 114 20 57 19 156 -2 220 -40 125 -141 188 -353 222
-249 39 -310 83 -310 223 0 101 42 172 125 207 111 48 266 34 366 -33 l60 -40
38 40 39 40 -44 32 c-68 48 -142 78 -227 89 -87 12 -97 12 -182 0z"/>
<path d="M3360 2743 c-4 -100 3 -1066 8 -1083 26 -88 89 -131 203 -138 76 -4
76 -4 81 22 3 14 3 37 0 51 -4 23 -9 25 -53 25 -26 0 -59 5 -72 11 -53 24 -52
13 -55 587 l-3 532 -54 0 c-30 0 -55 -3 -55 -7z"/>
<path d="M5160 2680 l0 -70 65 0 65 0 0 70 0 70 -65 0 -65 0 0 -70z"/>
<path d="M4700 2495 l0 -135 -55 0 -55 0 0 -45 0 -45 55 0 55 0 0 -298 c0
-289 1 -299 23 -342 33 -67 89 -101 176 -108 93 -6 97 -4 93 51 l-4 45 -59 4
c-68 5 -94 24 -109 77 -5 20 -10 156 -10 304 l0 267 89 0 c88 0 89 0 94 26 11
59 3 64 -94 64 l-89 0 0 135 0 135 -55 0 -55 0 0 -135z"/>
<path d="M5759 2369 c-191 -29 -289 -175 -289 -428 1 -208 68 -340 205 -403
40 -18 67 -23 140 -23 78 0 98 4 145 27 31 15 65 37 75 48 11 11 28 28 38 38
100 93 117 424 30 583 -63 117 -201 180 -344 158z m164 -123 c84 -41 117 -126
117 -307 0 -150 -17 -209 -75 -266 -79 -76 -209 -79 -293 -8 -21 19 -42 31
-46 27 -4 -3 -4 2 0 12 5 13 4 17 -3 13 -6 -4 -10 -1 -10 6 1 6 -5 38 -12 71
-8 37 -12 103 -9 180 3 105 7 129 29 177 40 85 102 120 204 116 33 -2 77 -11
98 -21z"/>
<path d="M7427 2368 c-151 -20 -250 -135 -233 -271 15 -130 107 -183 346 -202
105 -8 164 -33 179 -77 27 -76 1 -142 -71 -180 -37 -20 -58 -23 -153 -23 -117
1 -153 10 -227 61 -35 25 -66 25 -52 2 4 -6 3 -8 -3 -5 -6 4 -21 -5 -34 -19
l-24 -25 25 -20 c46 -35 144 -79 205 -90 134 -25 298 6 376 71 76 62 103 193
59 281 -42 82 -110 110 -307 129 -116 11 -164 27 -188 64 -19 28 -22 104 -6
134 46 85 234 105 366 38 l44 -23 26 27 c14 14 22 30 18 35 -5 4 -3 5 4 1 6
-3 14 -2 18 4 9 14 -51 48 -125 69 -78 23 -165 30 -243 19z"/>
<path d="M2694 2349 c-152 -58 -226 -223 -210 -464 12 -174 73 -283 194 -342
50 -24 69 -28 147 -28 72 0 100 5 138 22 146 67 207 186 207 403 0 221 -70
355 -214 409 -75 28 -190 28 -262 0z m259 -115 c26 -18 51 -48 67 -79 22 -44
25 -66 28 -186 5 -175 -10 -235 -73 -296 -64 -61 -130 -72 -244 -42 -29 8 -81
66 -103 114 -21 45 -23 65 -23 200 0 134 2 155 22 198 42 90 110 129 216 123
56 -3 77 -9 110 -32z"/>
<path d="M4378 2363 l-58 -4 0 -294 c0 -207 -4 -302 -12 -322 -44 -103 -135
-146 -256 -123 -67 14 -105 43 -132 102 -18 39 -20 68 -20 341 l0 297 -61 0
-60 0 3 -322 c3 -282 6 -328 21 -361 24 -51 87 -119 104 -113 8 3 11 1 8 -4
-9 -15 64 -41 136 -47 83 -7 161 15 223 62 26 19 48 35 51 35 3 0 5 -20 5 -45
l0 -45 55 0 55 0 0 425 c0 234 -1 424 -2 423 -2 -1 -29 -3 -60 -5z"/>
<path d="M5160 1943 l0 -423 60 0 60 0 0 419 0 419 -60 4 -60 3 0 -422z"/>
<path d="M6350 1943 l0 -423 54 0 54 0 4 298 c5 324 7 337 66 399 36 39 99 57
177 50 82 -6 127 -35 159 -100 l26 -51 0 -298 0 -298 61 0 60 0 -3 323 c-3
320 -3 322 -28 370 -29 57 -86 111 -144 138 -54 25 -191 26 -244 2 -20 -9 -40
-17 -44 -17 -3 -1 -22 -15 -42 -32 -19 -17 -38 -29 -41 -26 -3 3 -5 22 -5 43
l0 37 -55 4 -55 3 0 -422z"/>
</g>
</svg>
