<?xml version="1.0" encoding="UTF-8"?>
<svg version="1.1" xmlns="http://www.w3.org/2000/svg" width="100" height="100">
  <path d="M0 0 C33 0 66 0 100 0 C100 33 100 66 100 100 C67 100 34 100 0 100 C0 67 0 34 0 0 Z " fill="#3F7DC1" transform="translate(0,0)"/>
  <path d="M0 0 C0.79075928 0.00523682 1.58151855 0.01047363 2.39624023 0.01586914 C3.67724609 0.02070313 3.67724609 0.02070313 4.98413086 0.02563477 C5.88196289 0.03401367 6.77979492 0.04239258 7.70483398 0.05102539 C8.6065332 0.05553711 9.50823242 0.06004883 10.43725586 0.06469727 C12.67234712 0.07652315 14.90730835 0.09300319 17.14233398 0.11352539 C19.7322703 5.59223683 21.89937441 11.13548243 23.88061523 16.85961914 C25.99115693 22.89765613 28.15596618 28.91145811 30.39624023 34.90258789 C30.80383575 35.99341423 30.80383575 35.99341423 31.21966553 37.10627747 C32.32439381 40.05907535 33.43141454 43.01100443 34.54052734 45.9621582 C35.36978319 48.1705949 36.19565305 50.38027755 37.02124023 52.59008789 C37.26097061 53.22492096 37.50070099 53.85975403 37.74769592 54.51382446 C40.41267619 61.65722354 42.72567071 68.86353556 45.14233398 76.11352539 C20.39233398 76.11352539 -4.35766602 76.11352539 -29.85766602 76.11352539 C-28.00721238 69.32852874 -26.31929942 63.35722647 -23.54516602 57.05102539 C-21.01083954 51.10693887 -18.78122459 45.13726252 -16.79516602 38.98852539 C-14.57140864 32.10979118 -12.05480085 25.43305659 -9.31079102 18.74633789 C-7.33132772 13.79767965 -5.57899666 8.7830063 -3.83813477 3.74633789 C-2.49987809 0.15277215 -2.49987809 0.15277215 0 0 Z " fill="#FCFDFE" transform="translate(42.857666015625,23.886474609375)"/>
  <path d="M0 0 C3.19572928 2.61174402 4.10080217 5.50520597 5.41015625 9.35546875 C5.62312851 9.97593582 5.83610077 10.59640289 6.05552673 11.235672 C6.50412485 12.54804247 6.94849835 13.86186363 7.38891602 15.17700195 C8.05536383 17.16620013 8.73443526 19.15070813 9.41601562 21.13476562 C11.54719817 27.39513576 13.39146667 33.56586669 15 40 C5.43 40 -4.14 40 -14 40 C-9.57182201 26.56277025 -5.12036868 13.18882841 0 0 Z " fill="#427FC2" transform="translate(50,60)"/>
</svg>
